<?xml version="1.0" standalone="no"?>
<!DOCTYPE svg PUBLIC "-//W3C//DTD SVG 20010904//EN"
 "http://www.w3.org/TR/2001/REC-SVG-20010904/DTD/svg10.dtd">
<svg version="1.0" xmlns="http://www.w3.org/2000/svg"
 width="672.000000pt" height="672.000000pt" viewBox="0 0 672.000000 672.000000"
 preserveAspectRatio="xMidYMid meet">
<metadata>
Created by potrace 1.14, written by Peter Selinger 2001-2017
</metadata>
<g transform="translate(0.000000,672.000000) scale(0.100000,-0.100000)"
fill="#000000" stroke="none">
<path d="M2362 5729 c-47 -14 -119 -88 -130 -136 -6 -21 -10 -190 -10 -376 0
-186 -3 -341 -6 -345 -4 -3 -37 -7 -74 -8 -37 -1 -79 -7 -93 -12 -60 -24 -122
-100 -130 -162 l-4 -25 308 -3 307 -2 0 360 0 361 25 24 c13 14 32 25 42 26
10 1 356 2 768 3 793 2 790 2 815 -43 6 -13 10 -151 10 -375 l0 -356 309 0
310 0 -15 53 c-29 97 -100 147 -218 152 -39 2 -73 4 -76 4 -3 1 -4 156 -4 346
2 234 -2 357 -9 383 -15 49 -85 118 -133 131 -50 14 -1944 14 -1992 0z"/>
<path d="M133 4554 c-53 -19 -95 -59 -120 -117 -9 -21 -13 -187 -13 -672 l0
-643 847 0 c799 0 848 -1 860 -18 17 -23 17 -49 -1 -63 -10 -9 -231 -12 -860
-12 l-846 0 2 -962 c3 -949 3 -962 23 -997 12 -19 40 -48 64 -65 l43 -30 3206
-3 c2254 -2 3218 0 3244 8 50 14 97 56 119 105 18 38 19 90 19 992 l0 952
-846 0 c-620 0 -850 4 -860 12 -21 17 -17 57 7 70 15 8 256 11 860 11 l839 0
0 637 c0 462 -3 647 -12 672 -18 53 -48 87 -97 111 l-46 23 -3199 0 c-2440 1
-3207 -2 -3233 -11z"/>
</g>
</svg>
