<?xml version="1.0" encoding="UTF-8" standalone="no"?>
<svg
   width="498.50107pt"
   height="317.71002pt"
   version="1.1"
   viewBox="0 0 498.50107 317.71002"
   id="svg393"
   sodipodi:docname="noun-hammer-3397644.svg"
   inkscape:export-filename="hammer.svg"
   inkscape:export-xdpi="96"
   inkscape:export-ydpi="96"
   xmlns:inkscape="http://www.inkscape.org/namespaces/inkscape"
   xmlns:sodipodi="http://sodipodi.sourceforge.net/DTD/sodipodi-0.dtd"
   xmlns="http://www.w3.org/2000/svg"
   xmlns:svg="http://www.w3.org/2000/svg">
  <sodipodi:namedview
     id="namedview395"
     pagecolor="#505050"
     bordercolor="#eeeeee"
     borderopacity="1"
     inkscape:showpageshadow="0"
     inkscape:pageopacity="0"
     inkscape:pagecheckerboard="0"
     inkscape:deskcolor="#505050"
     inkscape:document-units="pt"
     showgrid="false" />
  <defs
     id="defs295" />
  <g
     id="g391"
     transform="translate(-100.73671,-121.15714)">
    <path
       d="m 509.15,401.57 c 1.1484,5.1445 0.17969,10.535 -2.6875,14.953 l -8.5664,13.328 h -0.004 c -3.6992,5.6719 -10.027,9.0664 -16.797,9.0156 -3.8203,0.0117 -7.5586,-1.0977 -10.754,-3.1914 l -107.86,-69.609 c -1.6016,-1.0273 -2.5742,-2.7969 -2.5781,-4.7031 -0.0156,-1.9219 0.95703,-3.7188 2.5781,-4.7578 l 40.77,-26.211 c 1.8398,-1.1797 4.2031,-1.1797 6.0469,0 l 91.281,58.801 c 4.3945,2.8125 7.4844,7.2695 8.5664,12.375 z m -310.35,-50.176 0.33594,-0.44922 c 0.83984,-1.3438 4.7617,-7.5039 10.527,-16.352 v 0.004 c 1.5547,-2.4023 1.0469,-5.5938 -1.1758,-7.3945 l -16.352,-13.273 4.1445,-6.4414 18.816,9.4062 v 0.004 c 2.5547,1.2891 5.668,0.44531 7.2227,-1.957 l 17.922,-28 50.398,32.648 c 1.8438,1.1797 4.2031,1.1797 6.0469,0 l 40.77,-26.266 c 1.6016,-1.0273 2.5703,-2.8008 2.5742,-4.7031 -0.004,-1.9062 -0.97266,-3.6758 -2.5742,-4.7031 l -67.426,-43.121 c 4.5938,-7.0547 8.1758,-12.711 10.246,-15.902 l 1.9023,-2.9688 h 0.004 c 0.80469,-1.2422 1.0898,-2.7539 0.78516,-4.2031 -0.32031,-1.457 -1.207,-2.7266 -2.4648,-3.5273 l -41.887,-27.105 v 0.004 c -1.4688,-0.90625 -2.4414,-2.4336 -2.6328,-4.1445 -0.26953,-1.7383 0.28906,-3.5 1.5117,-4.7617 9.9492,-11.07 22.965,-18.934 37.391,-22.594 14.43,-3.6602 29.617,-2.9492 43.641,2.043 2.4414,0.85547 5.1484,-0.0703 6.5508,-2.2422 1.3789,-2.1484 1.125,-4.9609 -0.61328,-6.832 -4.7227,-5.1133 -10.086,-9.5938 -15.961,-13.328 -19.426,-12.496 -43.02,-16.777 -65.598,-11.906 -22.582,4.8711 -42.309,18.496 -54.859,37.891 l -60.031,93.016 c -1.5547,2.4062 -1.0469,5.5938 1.1758,7.3945 l 16.352,13.273 -4.1445,6.4961 -18.812,-9.4648 c -2.5586,-1.2891 -5.6719,-0.44531 -7.2266,1.957 l -10.695,16.801 c -3.5156,5.4023 -4.738304,11.984 -3.3945,18.289 1.3477,6.3047 5.1484,11.816 10.562,15.312 l 53.367,34.102 c 3.8789,2.5469 8.4102,3.9062 13.047,3.9219 1.7148,0.008 3.4258,-0.17969 5.0977,-0.55859 6.3438,-1.2188 11.918,-4.957 15.457,-10.363 z m 396.54,-60.871 -10.695,-16.801 c -1.5547,-2.4023 -4.668,-3.2461 -7.2266,-1.957 l -18.816,9.4648 -4.1445,-6.4961 16.352,-13.215 0.004,-0.004 c 2.2227,-1.8008 2.7305,-4.9883 1.1758,-7.3906 l -60.031,-93.074 c -12.539,-19.402 -32.266,-33.043 -54.844,-37.922 -22.582,-4.8828 -46.18,-0.60937 -65.613,11.883 -5.8125,3.793 -11.168,8.25 -15.961,13.273 -1.8438,1.8672 -2.1445,4.7695 -0.71875,6.9727 1.4258,2.207 4.1953,3.125 6.6562,2.2109 14.035,-4.957 29.223,-5.6523 43.652,-1.9961 14.43,3.6602 27.453,11.504 37.434,22.547 1.1758,1.3125 1.7109,3.0742 1.457,4.8164 -0.19141,1.7148 -1.1641,3.2422 -2.6328,4.1445 l -41.941,27.047 c -2.5742,1.6914 -3.3008,5.1445 -1.625,7.7305 l 12.152,19.039 -230.5,148.34 c -4.4141,2.8359 -7.5195,7.3086 -8.6328,12.434 -1.1133,5.125 -0.14062,10.484 2.6953,14.895 l 8.5664,13.328 h 0.004 c 2.8555,4.4023 7.3359,7.5 12.469,8.6133 5.1289,1.1094 10.492,0.14844 14.914,-2.6797 l 230.5,-148.57 17.863,28 c 1.5547,2.4023 4.668,3.25 7.2227,1.9609 l 18.816,-9.4062 4.1992,6.4414 -16.406,13.043 c -2.2227,1.8008 -2.7305,4.9922 -1.1758,7.3945 l 10.754,16.801 v -0.004 c 4.4492,6.9531 12.125,11.172 20.383,11.203 4.7031,-0.082 9.2773,-1.543 13.16,-4.2031 l 53.535,-34.496 c 5.3359,-3.5117 9.0703,-8.9883 10.383,-15.242 1.3086,-6.2539 0.0937,-12.773 -3.3828,-18.133 z"
       id="path297"
       style="fill:#ffffff"
       inkscape:export-filename="../../DEV/github/repos-toolbox/src/assets/hammer.svg"
       inkscape:export-xdpi="96"
       inkscape:export-ydpi="96" />
  </g>
</svg>
