<?xml version="1.0" encoding="UTF-8" standalone="no"?>
<svg
   width="504.00003pt"
   height="358.07101pt"
   version="1.1"
   viewBox="0 0 504.00003 358.07101"
   id="svg779"
   sodipodi:docname="noun-toolbox-3890795.svg"
   xmlns:inkscape="http://www.inkscape.org/namespaces/inkscape"
   xmlns:sodipodi="http://sodipodi.sourceforge.net/DTD/sodipodi-0.dtd"
   xmlns="http://www.w3.org/2000/svg"
   xmlns:svg="http://www.w3.org/2000/svg">
  <sodipodi:namedview
     id="namedview781"
     pagecolor="#505050"
     bordercolor="#eeeeee"
     borderopacity="1"
     inkscape:showpageshadow="0"
     inkscape:pageopacity="0"
     inkscape:pagecheckerboard="0"
     inkscape:deskcolor="#505050"
     inkscape:document-units="pt"
     showgrid="false" />
  <defs
     id="defs709" />
  <g
     id="g777"
     transform="translate(-98.000005,-100.975)">
    <g
       id="g1968">
      <path
         d="M 476.45,297.54 H 602 v -93.703 c 0,-8.1016 -6.5703,-14.672 -14.668,-14.672 h -474.66 c -8.1016,0 -14.672,6.5703 -14.672,14.672 v 93.703 h 125.55 c 1.9375,0 3.5,1.5664 3.5,3.5 0,1.9414 -1.5625,3.5 -3.5,3.5 H 98 v 139.83 c 0,8.0977 6.5703,14.676 14.672,14.676 h 474.66 c 8.0977,0 14.668,-6.5781 14.668,-14.676 V 304.54 H 476.45 c -1.9375,0 -3.5,-1.5586 -3.5,-3.5 0,-1.9336 1.5625,-3.5 3.5,-3.5 z M 287.62,130.369 c 0,-3.5547 2.8906,-6.4453 6.4531,-6.4453 h 111.83 c 3.5781,0 6.4531,2.8906 6.4531,6.4453 v 51.801 h 45.922 c 0,-8.5859 -6.9492,-15.539 -15.535,-15.539 h -7.4258 V 116.51 c 0,-8.5859 -6.9492,-15.535 -15.527,-15.535 h -139.59 c -8.5781,0 -15.535,6.9492 -15.535,15.535 v 50.121 h -7.4219 c -8.5859,0 -15.539,6.957 -15.539,15.539 h 45.922 z"
         id="path711"
         sodipodi:nodetypes="scsssscssscsssscssscsssccscsssscsccc"
         style="fill:#746cc0;fill-opacity:1" />
      <g
         id="g1211"
         transform="matrix(9.2619155,0,0,9.1925772,-4804.3796,-4685.7525)"
         style="fill:#ffffff;fill-opacity:1">
        <g
           id="g1215"
           transform="translate(-0.43269431,-11.837665)"
           style="fill:#ffffff;fill-opacity:1">
          <path
             d="m 550.19604,550.19274 a 2.0625,2.0625 0 0 1 2.0625,-2.0625 h 10.875 a 0.5625,0.5625 0 0 1 0.5625,0.5625 v 15.375 a 0.5625,0.5625 0 0 1 -0.5625,0.5625 h -4.5 a 0.5625,0.5625 0 0 1 0,-1.125 h 3.9375 v -3 h -10.125 a 1.125,1.125 0 0 0 -1.125,1.125 v 0.5625 c 0,0.537 0.3225,1.0005 0.7875,1.20375 a 0.5625,0.5625 0 0 1 -0.45,1.0305 2.43825,2.43825 0 0 1 -1.4625,-2.23425 z m 12.375,-0.9375 h -10.3125 c -0.5175,0 -0.9375,0.42 -0.9375,0.9375 v 9.48825 a 2.24175,2.24175 0 0 1 1.125,-0.30075 h 10.125 z"
             id="path1110-3"
             style="fill:#ffffff;fill-opacity:1;stroke-width:0.75" />
          <path
             d="m 553.19604,561.81774 a 0.1875,0.1875 0 0 1 0.1875,-0.1875 h 3.75 a 0.1875,0.1875 0 0 1 0.1875,0.1875 v 3.7575 a 0.1875,0.1875 0 0 1 -0.29775,0.15075 l -1.6545,-1.203 a 0.1875,0.1875 0 0 0 -0.2205,0 l -1.6545,1.20225 a 0.1875,0.1875 0 0 1 -0.29775,-0.15 z"
             id="path1112"
             style="fill:#ffffff;fill-opacity:1;stroke-width:0.75" />
        </g>
      </g>
    </g>
  </g>
</svg>
